# xmcd CD database file
#
# Track frame offsets:
#	150
#	23166
#	49299
#	69607
#	89111
#	122468
#	128899
#	146440
#	172891
#	190034
#	206618
#	234633
#	254557
#	278935
#	318274
#
# Disc length: 4431 seconds
#
# Revision: 0
# Processed by: cddbd v1.5.1PL0 Copyright (c) Steve Scherf et al.
# Submitted via: CDex 1.51
#
DISCID=dd114d0f
DTITLE=Zakiya Hooker - Colors of the Blues-Live in Argentina
DYEAR=2005
DGENRE=Blues
TTITLE0=Mascarade
TTITLE1=Just a Closer walk with Thee (trad)
TTITLE2=Besame mucho
TTITLE3=Sweet Home Chicago
TTITLE4=Todo es Posible
TTITLE5=Speachh Ollan Christopher
TTITLE6=Red Rooster
TTITLE7=Cold Cold Feeling
TTITLE8=Rainy Rainy Day
TTITLE9=Nobody Knows You
TTITLE10=Drowning in your love
TTITLE11=Hug you squeeze you
TTITLE12=Damm your eyes
TTITLE13=Down Home Blues
TTITLE14=Video La Trastienda
EXTD=YEAR: 2005
EXTT0=
EXTT1=
EXTT2=
EXTT3=
EXTT4=
EXTT5=
EXTT6=
EXTT7=
EXTT8=
EXTT9=
EXTT10=
EXTT11=
EXTT12=
EXTT13=
EXTT14=
PLAYORDER=
